<?xml version="1.0" encoding="UTF-8"?>
<svg xmlns="http://www.w3.org/2000/svg" viewBox="0 0 48 48">
  <defs>
    <style>
      .cls-1 {
        fill: #fff;
      }

      .cls-2 {
        fill: #13305a;
      }
    </style>
  </defs>
  <rect class="cls-1" width="48" height="48"/>
  <g id="Capa_1" data-name="Capa 1">
    <g>
      <g>
        <g>
          <path class="cls-2" d="M8.17.37h-2.28v.61h1.39c.49,0,.9.44.9.98v25.77c0,2.42,1.8,4.38,4.02,4.38h0V.37h-4.02Z"/>
          <path class="cls-2" d="M19.91.3c-1.02,0-2.31.03-3.71.05v.63h3.43c6.94,0,11.28,5.88,11.28,15.13,0,6.94-2.44,12.57-6.59,14.74v.82c6.66-1.71,10.84-7.39,10.84-15.33C35.16,6.73,29.04.3,19.91.3Z"/>
        </g>
        <path class="cls-2" d="M20.22,46.38v-25.77c0-2.42-1.8-4.38-4.02-4.38h0v31.73h6.3v-.61h-1.39c-.49,0-.9-.44-.9-.98Z"/>
        <path class="cls-2" d="M32.42,47.53v.44h7.63v-4.73h-.54c-1.81,2.08-4.22,3.55-7.09,4.29Z"/>
      </g>
      <ellipse class="cls-2" cx="38.14" cy="2.45" rx="1.91" ry="2.08"/>
    </g>
  </g>
</svg>