<?xml version="1.0" encoding="UTF-8"?>
<svg id="Capa_2" data-name="Capa 2" xmlns="http://www.w3.org/2000/svg" viewBox="0 0 34.16 47.67">
  <defs>
    <style>
      .cls-1 {
        fill: #fff;
      }
    </style>
  </defs>
  <g id="Capa_1-2" data-name="Capa 1">
    <g id="Objeto_generativo_0_0_" data-name="Objeto generativo (0, 0)">
      <g>
        <g>
          <g>
            <path class="cls-1" d="M2.28.07H0v.61h1.39c.49,0,.9.44.9.98v25.77c0,2.42,1.8,4.38,4.02,4.38h0V.07H2.28Z"/>
            <path class="cls-1" d="M14.02,0c-1.02,0-2.31.03-3.71.05v.63h3.43c6.94,0,11.28,5.88,11.28,15.13,0,6.94-2.44,12.57-6.59,14.74v.82c6.66-1.71,10.84-7.39,10.84-15.33C29.27,6.43,23.15,0,14.02,0Z"/>
          </g>
          <path class="cls-1" d="M14.33,46.08v-25.77c0-2.42-1.8-4.38-4.02-4.38h0v31.73h6.3v-.61h-1.39c-.49,0-.9-.44-.9-.98h0Z"/>
          <path class="cls-1" d="M26.53,47.23v.44h7.63v-4.73h-.54c-1.81,2.08-4.22,3.55-7.09,4.29Z"/>
        </g>
        <ellipse class="cls-1" cx="32.25" cy="2.15" rx="1.91" ry="2.08"/>
      </g>
    </g>
  </g>
</svg>